<svg xmlns="http://www.w3.org/2000/svg" version="1.1" xmlns:xlink="http://www.w3.org/1999/xlink" xmlns:svgjs="http://svgjs.dev/svgjs" width="1500" height="1500" viewBox="0 0 1500 1500"><rect width="1500" height="1500" fill="#ffffff"></rect><g transform="matrix(0.6666666666666666,0,0,0.6666666666666666,249.39393939393938,665.785519769618)"><svg viewBox="0 0 396 67" data-background-color="#ffffff" preserveAspectRatio="xMidYMid meet" height="253" width="1500" xmlns="http://www.w3.org/2000/svg" xmlns:xlink="http://www.w3.org/1999/xlink"><g id="tight-bounds" transform="matrix(1,0,0,1,0.2400000000000091,-0.04721239860322157)"><svg viewBox="0 0 395.52 67.09442479720644" height="67.09442479720644" width="395.52"><g><svg viewBox="0 0 499.6160360084421 84.75285840272757" height="67.09442479720644" width="395.52"><g transform="matrix(1,0,0,1,0,1.4922717470813183)"><svg viewBox="0 0 395.52 81.76831490856493" height="81.76831490856493" width="395.52"><g id="textblocktransform"><svg viewBox="0 0 395.52 81.76831490856493" height="81.76831490856493" width="395.52" id="textblock"><g><svg viewBox="0 0 395.52 81.76831490856493" height="81.76831490856493" width="395.52"><g transform="matrix(1,0,0,1,0,0)"><svg width="395.52" viewBox="3.81 -38.09 236.28 48.86000000000001" height="81.76831490856493" data-palette-color="url(#275013f3-31b9-4f6c-a1f5-75d121d0d062)"></svg></g></svg></g></svg></g></svg></g><g transform="matrix(1,0,0,1,414.82353671035435,0)"><svg viewBox="0 0 84.79249929808773 84.75285840272757" height="84.75285840272757" width="84.79249929808773"><g><svg xmlns="http://www.w3.org/2000/svg" xmlns:xlink="http://www.w3.org/1999/xlink" version="1.1" x="0" y="0" viewBox="0.7607695154586737 0.7749999999999999 30.439230484541326 30.425" enable-background="new 0 0 32 32" xml:space="preserve" height="84.75285840272757" width="84.79249929808773" class="icon-icon-0" data-fill-palette-color="accent" id="icon-0"></svg></g></svg></g></svg></g><defs></defs><mask id="5ebb92f4-9ecc-41ba-af30-b46b952962e5"><g id="SvgjsG4632"><svg viewBox="0 0 395.52 67.09442479720644" height="67.09442479720644" width="395.52"><g><svg viewBox="0 0 499.6160360084421 84.75285840272757" height="67.09442479720644" width="395.52"><g transform="matrix(1,0,0,1,0,1.4922717470813183)"><svg viewBox="0 0 395.52 81.76831490856493" height="81.76831490856493" width="395.52"><g id="SvgjsG4631"><svg viewBox="0 0 395.52 81.76831490856493" height="81.76831490856493" width="395.52" id="SvgjsSvg4630"><g><svg viewBox="0 0 395.52 81.76831490856493" height="81.76831490856493" width="395.52"><g transform="matrix(1,0,0,1,0,0)"><svg width="395.52" viewBox="3.81 -38.09 236.28 48.86000000000001" height="81.76831490856493" data-palette-color="url(#275013f3-31b9-4f6c-a1f5-75d121d0d062)"><path d="M31.49 8.57L28.44 10.77Q28.34 10.69 27.71 9.83 27.08 8.96 26.14 7.65 25.2 6.35 24.16 4.88 23.12 3.42 22.2 2.12 21.29 0.83 20.72-0.02 20.14-0.88 20.12-0.93L20.12-0.93 24.17-1.61Q24.22-1.51 24.95-0.49 25.68 0.54 26.72 2 27.76 3.47 28.82 4.94 29.88 6.42 30.64 7.45 31.4 8.47 31.49 8.57L31.49 8.57ZM19.85 0.49L19.85 0.49Q14.38 0.49 10.83-1.72 7.28-3.93 5.54-8 3.81-12.06 3.81-17.6L3.81-17.6Q3.81-23.27 5.59-27.4 7.37-31.54 10.94-33.79 14.5-36.04 19.87-36.04L19.87-36.04Q25.15-36.04 28.67-33.78 32.2-31.52 33.97-27.37 35.74-23.22 35.74-17.55L35.74-17.55Q35.74-12.11 34.02-8.04 32.3-3.98 28.78-1.75 25.27 0.49 19.85 0.49ZM19.8-3.27L19.8-3.27Q23.93-3.27 26.35-5.07 28.78-6.86 29.86-10.08 30.93-13.31 30.93-17.58L30.93-17.58Q30.93-22.02 29.83-25.32 28.74-28.61 26.29-30.44 23.85-32.28 19.85-32.28L19.85-32.28Q15.87-32.28 13.39-30.46 10.91-28.64 9.78-25.34 8.64-22.05 8.64-17.58L8.64-17.58Q8.64-13.31 9.72-10.08 10.79-6.86 13.24-5.07 15.7-3.27 19.8-3.27ZM52.24 0.49L52.24 0.49Q47.56 0.49 45.15-2.1 42.75-4.69 42.75-9.86L42.75-9.86 42.75-26.42 47.19-26.42 47.19-9.96Q47.19-7.69 47.74-6.08 48.29-4.47 49.53-3.61 50.78-2.76 52.85-2.76L52.85-2.76Q54.95-2.76 56.38-3.38 57.81-4 58.73-4.83 59.64-5.66 60.13-6.32L60.13-6.32 60.13-26.42 64.55-26.42 64.55 0 60.72 0 60.47-3.3Q59.15-1.64 57.15-0.57 55.15 0.49 52.24 0.49ZM83.44 0.49L83.44 0.49Q79.61 0.49 76.94-1.23 74.26-2.95 72.87-6.04 71.48-9.13 71.48-13.23L71.48-13.23Q71.48-17.43 72.85-20.52 74.21-23.61 76.89-25.31 79.56-27 83.44-27L83.44-27Q87.32-27 89.99-25.31 92.65-23.61 94.01-20.52 95.38-17.43 95.38-13.23L95.38-13.23Q95.38-9.13 93.99-6.04 92.6-2.95 89.94-1.23 87.28 0.49 83.44 0.49ZM83.44-2.81L83.44-2.81Q86.03-2.81 87.65-4.16 89.28-5.52 90.05-7.86 90.82-10.21 90.82-13.21L90.82-13.21Q90.82-16.28 90.05-18.64 89.28-21 87.64-22.34 86.01-23.68 83.44-23.68L83.44-23.68Q79.58-23.68 77.81-20.75 76.04-17.82 76.04-13.21L76.04-13.21Q76.04-10.21 76.81-7.86 77.58-5.52 79.22-4.16 80.85-2.81 83.44-2.81ZM112.57 0.2L112.57 0.2Q109.76 0.2 108.04-0.23 106.32-0.66 105.42-1.61 104.53-2.56 104.22-4.17 103.9-5.79 103.9-8.15L103.9-8.15 103.9-23.71 99.72-23.71 99.85-26.17 104.02-26.39 104.66-33.54 108.34-33.81 108.34-26.42 115.37-26.42 115.37-23.71 108.34-23.71 108.34-8.13Q108.34-6.05 108.57-4.98 108.81-3.91 109.71-3.5 110.61-3.1 112.57-3.03L112.57-3.03Q113.22-3 113.88-2.98 114.54-2.95 115.2-2.93L115.2-2.93 115.01 0.2Q114.4 0.2 113.79 0.2 113.18 0.2 112.57 0.2ZM128.97 0.49L128.97 0.49Q125.19 0.49 122.82-1.42 120.45-3.32 120.45-7.18L120.45-7.18Q120.45-8.94 121.07-10.3 121.69-11.67 122.96-12.61 124.23-13.55 126.24-14.04 128.24-14.53 130.97-14.53L130.97-14.53 136.93-14.53 136.93-17.58Q136.93-20.78 135.49-22.2 134.05-23.63 131.14-23.63L131.14-23.63Q129.26-23.63 126.91-23.03 124.55-22.44 122.67-21.14L122.67-21.14 121.38-24.51Q122.72-25.37 124.34-25.92 125.97-26.46 127.74-26.73 129.51-27 131.26-27L131.26-27Q134.24-27 136.51-26.05 138.78-25.1 140.07-22.95 141.35-20.8 141.35-17.21L141.35-17.21 141.35 0 137.64 0 137.32-3.25Q136.27-2 135.02-1.17 133.78-0.34 132.28 0.07 130.78 0.49 128.97 0.49ZM129.65-2.66L129.65-2.66Q132-2.66 133.85-3.64 135.71-4.61 136.93-6.18L136.93-6.18 136.93-11.72 131.78-11.72Q129.09-11.72 127.53-11.21 125.97-10.69 125.32-9.68 124.67-8.67 124.67-7.13L124.67-7.13Q124.67-4.64 126.13-3.65 127.58-2.66 129.65-2.66ZM160.68 0.49L160.68 0.49Q158.09 0.49 156.15-0.45 154.21-1.39 153.01-2.81L153.01-2.81 152.75 0 149.13 0 149.13-37.6 153.58-38.09 153.58-27.08 153.41-21.53Q154.31-23.73 155.61-24.91 156.92-26.1 158.46-26.55 160-27 161.51-27L161.51-27Q165.1-27 167.41-25.23 169.71-23.46 170.82-20.36 171.94-17.26 171.94-13.26L171.94-13.26Q171.94-9.13 170.62-6.04 169.3-2.95 166.8-1.23 164.29 0.49 160.68 0.49ZM160.41-2.81L160.41-2.81Q162.85-2.81 164.39-4.08 165.93-5.35 166.66-7.69 167.39-10.03 167.39-13.23L167.39-13.23Q167.39-16.28 166.8-18.64 166.2-21 164.78-22.34 163.37-23.68 160.88-23.68L160.88-23.68Q158.26-23.68 156.6-22.44 154.94-21.19 154.17-18.95 153.41-16.7 153.41-13.65L153.41-13.65 153.41-6.1Q154.21-5 155.29-4.27 156.36-3.54 157.67-3.17 158.97-2.81 160.41-2.81ZM186.36 0.2L186.36 0.2Q184.02 0.2 182.42-0.4 180.82-1 180-2.67 179.18-4.35 179.18-7.57L179.18-7.57 179.18-37.6 183.6-38.09 183.6-7.62Q183.6-5.64 183.85-4.74 184.09-3.83 184.84-3.54 185.58-3.25 187.05-3.13L187.05-3.13Q187.44-3.1 187.8-3.08 188.17-3.05 188.56-3.03L188.56-3.03 188.22 0.2Q187.75 0.2 187.29 0.2 186.83 0.2 186.36 0.2ZM206.06 0.49L206.06 0.49Q202.5 0.49 199.63-1.15 196.76-2.78 195.09-5.85 193.42-8.91 193.42-13.13L193.42-13.13Q193.42-17.53 195.05-20.63 196.69-23.73 199.45-25.37 202.2-27 205.52-27L205.52-27Q208.77-27 211.07-25.56 213.36-24.12 214.59-21.46 215.83-18.8 215.83-15.14L215.83-15.14Q215.83-14.77 215.77-14.14 215.71-13.5 215.66-12.99 215.61-12.48 215.61-12.43L215.61-12.43 197.96-12.43Q198.15-9.06 199.31-6.93 200.47-4.81 202.36-3.81 204.25-2.81 206.62-2.81L206.62-2.81Q208.89-2.81 210.5-3.45 212.12-4.1 213.75-5.03L213.75-5.03 214.07-5.03 215.09-2.12Q213.46-1 211.15-0.26 208.84 0.49 206.06 0.49ZM198.03-15.31L198.03-15.31 212.02-15.31Q211.97-19.29 210.44-21.5 208.92-23.71 205.74-23.71L205.74-23.71Q202.55-23.71 200.46-21.45 198.37-19.19 198.03-15.31ZM230.72 0.49L230.72 0.49Q227.54 0.49 224.82-0.57 222.1-1.64 220.46-3.69L220.46-3.69 222.78-5.93 223.12-5.93Q224.71-4.1 226.79-3.42 228.86-2.73 230.72-2.73L230.72-2.73Q233.26-2.73 234.65-3.91 236.04-5.08 236.04-7.5L236.04-7.5Q236.04-8.35 235.72-9.05 235.4-9.74 234.43-10.36 233.45-10.99 231.43-11.62L231.43-11.62 228.45-12.55Q225.25-13.55 223.71-14.65 222.17-15.75 221.7-17.04 221.22-18.33 221.22-19.9L221.22-19.9Q221.22-23.19 223.8-25.1 226.37-27 230.79-27L230.79-27Q232.94-27 234.62-26.5 236.31-26 237.55-25.13 238.8-24.27 239.58-23.14L239.58-23.14 237.16-21.17 236.92-21.17Q236.02-22.24 234.48-22.95 232.94-23.66 230.81-23.66L230.81-23.66Q228.96-23.66 227.81-23.21 226.66-22.75 226.13-21.9 225.59-21.04 225.59-19.87L225.59-19.87Q225.59-18.53 226.38-17.72 227.18-16.92 229.89-16.06L229.89-16.06 232.82-15.14Q235.99-14.11 237.54-12.94 239.09-11.77 239.59-10.46 240.09-9.16 240.09-7.67L240.09-7.67Q240.09-4.79 238.82-2.99 237.55-1.2 235.43-0.35 233.31 0.49 230.72 0.49Z" opacity="1" transform="matrix(1,0,0,1,0,0)" fill="white" class="wordmark-text-0" id="SvgjsPath4629"></path></svg></g></svg></g></svg></g></svg></g><g transform="matrix(1,0,0,1,414.82353671035435,0)"><svg viewBox="0 0 84.79249929808773 84.75285840272757" height="84.75285840272757" width="84.79249929808773"><g><svg xmlns="http://www.w3.org/2000/svg" xmlns:xlink="http://www.w3.org/1999/xlink" version="1.1" x="0" y="0" viewBox="0.7607695154586737 0.7749999999999999 30.439230484541326 30.425" enable-background="new 0 0 32 32" xml:space="preserve" height="84.75285840272757" width="84.79249929808773" class="icon-icon-0" data-fill-palette-color="accent" id="SvgjsSvg4628"><g fill="black"><g fill="black"><path fill="black" d="M1.5 31.2C1.3 31.2 1.1 31.1 1 31 0.8 30.8 0.7 30.6 0.8 30.3L4.5 11.2C4.6 10.9 4.8 10.6 5.1 10.6L14.7 9.3C14.9 9.3 15.2 9.3 15.3 9.5L22.5 16.7C22.7 16.9 22.7 17.1 22.7 17.3L21.4 26.9C21.4 27.2 21.1 27.5 20.8 27.5L1.6 31.2zM5.8 12.1L2.4 29.6 19.9 26.2 21.1 17.5 14.4 10.8z"></path></g><g fill="black"><rect x="5.2" y="19.8" transform="matrix(-0.7071 -0.7071 0.7071 -0.7071 -8.3465 48.7211)" fill="black" width="1.5" height="12.6"></rect></g><g fill="black"><path fill="black" d="M12 23.1C11.2 23.1 10.4 22.8 9.8 22.2S8.9 20.9 8.9 20C8.9 19.2 9.2 18.4 9.8 17.8 11 16.6 13 16.6 14.1 17.8 15.3 19 15.3 20.9 14.1 22.1 13.6 22.8 12.8 23.1 12 23.1M12 18.4C11.6 18.4 11.2 18.6 10.9 18.9S10.4 19.6 10.4 20 10.6 20.8 10.9 21.1C11.5 21.7 12.5 21.7 13.1 21.1S13.7 19.5 13.1 18.9C12.8 18.6 12.4 18.4 12 18.4"></path></g><g fill="black"><path fill="black" d="M23.8 18.7C22.9 18.7 22 18.3 21.4 17.7L14.3 10.6C13 9.3 13 7.1 14.3 5.8L19.1 1C19.4 0.7 19.9 0.7 20.2 1L31 11.8C31.1 11.9 31.2 12.1 31.2 12.3S31.1 12.7 31 12.8L26.1 17.7C25.5 18.4 24.7 18.7 23.8 18.7M19.7 2.6L15.4 6.9C14.7 7.6 14.7 8.9 15.4 9.6L22.5 16.7C23.2 17.4 24.5 17.4 25.2 16.7L29.5 12.4z"></path></g></g></svg></g></svg></g></svg></g><defs><mask></mask></defs></svg><rect width="395.52" height="67.09442479720644" fill="black" stroke="none" visibility="hidden"></rect></g></mask><linearGradient x1="0" x2="1" y1="0.578" y2="0.595" id="275013f3-31b9-4f6c-a1f5-75d121d0d062"><stop stop-color="#6ee2f5" offset="0"></stop><stop stop-color="#6454f0" offset="1"></stop></linearGradient><rect width="395.52" height="67.09442479720644" fill="#000000" mask="url(#5ebb92f4-9ecc-41ba-af30-b46b952962e5)" data-fill-palette-color="primary"></rect><mask id="47f33d7d-bb30-4cfb-9b3a-39b3bc98ca3b"><g id="SvgjsG4651"><svg viewBox="0 0 395.52 67.09442479720644" height="67.09442479720644" width="395.52"><g><svg viewBox="0 0 499.6160360084421 84.75285840272757" height="67.09442479720644" width="395.52"><g transform="matrix(1,0,0,1,0,1.4922717470813183)"><svg viewBox="0 0 395.52 81.76831490856493" height="81.76831490856493" width="395.52"><g id="SvgjsG4650"><svg viewBox="0 0 395.52 81.76831490856493" height="81.76831490856493" width="395.52" id="SvgjsSvg4649"><g><svg viewBox="0 0 395.52 81.76831490856493" height="81.76831490856493" width="395.52"><g transform="matrix(1,0,0,1,0,0)"><svg width="395.52" viewBox="3.81 -38.09 236.28 48.86000000000001" height="81.76831490856493" data-palette-color="url(#275013f3-31b9-4f6c-a1f5-75d121d0d062)"></svg></g></svg></g></svg></g></svg></g><g transform="matrix(1,0,0,1,414.82353671035435,0)"><svg viewBox="0 0 84.79249929808773 84.75285840272757" height="84.75285840272757" width="84.79249929808773"><g><svg xmlns="http://www.w3.org/2000/svg" xmlns:xlink="http://www.w3.org/1999/xlink" version="1.1" x="0" y="0" viewBox="0.7607695154586737 0.7749999999999999 30.439230484541326 30.425" enable-background="new 0 0 32 32" xml:space="preserve" height="84.75285840272757" width="84.79249929808773" class="icon-icon-0" data-fill-palette-color="accent" id="SvgjsSvg4648"><g fill="white"><g fill="white"><path fill="white" d="M1.5 31.2C1.3 31.2 1.1 31.1 1 31 0.8 30.8 0.7 30.6 0.8 30.3L4.5 11.2C4.6 10.9 4.8 10.6 5.1 10.6L14.7 9.3C14.9 9.3 15.2 9.3 15.3 9.5L22.5 16.7C22.7 16.9 22.7 17.1 22.7 17.3L21.4 26.9C21.4 27.2 21.1 27.5 20.8 27.5L1.6 31.2zM5.8 12.1L2.4 29.6 19.9 26.2 21.1 17.5 14.4 10.8z"></path></g><g fill="white"><rect x="5.2" y="19.8" transform="matrix(-0.7071 -0.7071 0.7071 -0.7071 -8.3465 48.7211)" fill="white" width="1.5" height="12.6"></rect></g><g fill="white"><path fill="white" d="M12 23.1C11.2 23.1 10.4 22.8 9.8 22.2S8.9 20.9 8.9 20C8.9 19.2 9.2 18.4 9.8 17.8 11 16.6 13 16.6 14.1 17.8 15.3 19 15.3 20.9 14.1 22.1 13.6 22.8 12.8 23.1 12 23.1M12 18.4C11.6 18.4 11.2 18.6 10.9 18.9S10.4 19.6 10.4 20 10.6 20.8 10.9 21.1C11.5 21.7 12.5 21.7 13.1 21.1S13.7 19.5 13.1 18.9C12.8 18.6 12.4 18.4 12 18.4"></path></g><g fill="white"><path fill="white" d="M23.8 18.7C22.9 18.7 22 18.3 21.4 17.7L14.3 10.6C13 9.3 13 7.1 14.3 5.8L19.1 1C19.4 0.7 19.9 0.7 20.2 1L31 11.8C31.1 11.9 31.2 12.1 31.2 12.3S31.1 12.7 31 12.8L26.1 17.7C25.5 18.4 24.7 18.7 23.8 18.7M19.7 2.6L15.4 6.9C14.7 7.6 14.7 8.9 15.4 9.6L22.5 16.7C23.2 17.4 24.5 17.4 25.2 16.7L29.5 12.4z"></path></g></g></svg></g></svg></g></svg></g><defs><mask></mask></defs><mask><g id="SvgjsG4647"><svg viewBox="0 0 395.52 67.09442479720644" height="67.09442479720644" width="395.52"><g><svg viewBox="0 0 499.6160360084421 84.75285840272757" height="67.09442479720644" width="395.52"><g transform="matrix(1,0,0,1,0,1.4922717470813183)"><svg viewBox="0 0 395.52 81.76831490856493" height="81.76831490856493" width="395.52"><g id="SvgjsG4646"><svg viewBox="0 0 395.52 81.76831490856493" height="81.76831490856493" width="395.52" id="SvgjsSvg4645"><g><svg viewBox="0 0 395.52 81.76831490856493" height="81.76831490856493" width="395.52"><g transform="matrix(1,0,0,1,0,0)"><svg width="395.52" viewBox="3.81 -38.09 236.28 48.86000000000001" height="81.76831490856493" data-palette-color="url(#275013f3-31b9-4f6c-a1f5-75d121d0d062)"><path d="M31.49 8.57L28.44 10.77Q28.34 10.69 27.71 9.83 27.08 8.96 26.14 7.65 25.2 6.35 24.16 4.88 23.12 3.42 22.2 2.12 21.29 0.83 20.72-0.02 20.14-0.88 20.12-0.93L20.12-0.93 24.17-1.61Q24.22-1.51 24.95-0.49 25.68 0.54 26.72 2 27.76 3.47 28.82 4.94 29.88 6.42 30.64 7.45 31.4 8.47 31.49 8.57L31.49 8.57ZM19.85 0.49L19.85 0.49Q14.38 0.49 10.83-1.72 7.28-3.93 5.54-8 3.81-12.06 3.81-17.6L3.81-17.6Q3.81-23.27 5.59-27.4 7.37-31.54 10.94-33.79 14.5-36.04 19.87-36.04L19.87-36.04Q25.15-36.04 28.67-33.78 32.2-31.52 33.97-27.37 35.74-23.22 35.74-17.55L35.74-17.55Q35.74-12.11 34.02-8.04 32.3-3.98 28.78-1.75 25.27 0.49 19.85 0.49ZM19.8-3.27L19.8-3.27Q23.93-3.27 26.35-5.07 28.78-6.86 29.86-10.08 30.93-13.31 30.93-17.58L30.93-17.58Q30.93-22.02 29.83-25.32 28.74-28.61 26.29-30.44 23.85-32.28 19.85-32.28L19.85-32.28Q15.87-32.28 13.39-30.46 10.91-28.64 9.78-25.34 8.64-22.05 8.64-17.58L8.64-17.58Q8.64-13.31 9.72-10.08 10.79-6.86 13.24-5.07 15.7-3.27 19.8-3.27ZM52.24 0.49L52.24 0.49Q47.56 0.49 45.15-2.1 42.75-4.69 42.75-9.86L42.75-9.86 42.75-26.42 47.19-26.42 47.19-9.96Q47.19-7.69 47.74-6.08 48.29-4.47 49.53-3.61 50.78-2.76 52.85-2.76L52.85-2.76Q54.95-2.76 56.38-3.38 57.81-4 58.73-4.83 59.64-5.66 60.13-6.32L60.13-6.32 60.13-26.42 64.55-26.42 64.55 0 60.72 0 60.47-3.3Q59.15-1.64 57.15-0.57 55.15 0.49 52.24 0.49ZM83.44 0.49L83.44 0.49Q79.61 0.49 76.94-1.23 74.26-2.95 72.87-6.04 71.48-9.13 71.48-13.23L71.48-13.23Q71.48-17.43 72.85-20.52 74.21-23.61 76.89-25.31 79.56-27 83.44-27L83.44-27Q87.32-27 89.99-25.31 92.65-23.61 94.01-20.52 95.38-17.43 95.38-13.23L95.38-13.23Q95.38-9.13 93.99-6.04 92.6-2.95 89.94-1.23 87.28 0.49 83.44 0.49ZM83.44-2.81L83.44-2.81Q86.03-2.81 87.65-4.16 89.28-5.52 90.05-7.86 90.82-10.21 90.82-13.21L90.82-13.21Q90.82-16.28 90.05-18.64 89.28-21 87.64-22.34 86.01-23.68 83.44-23.68L83.44-23.68Q79.58-23.68 77.81-20.75 76.04-17.82 76.04-13.21L76.04-13.21Q76.04-10.21 76.81-7.86 77.58-5.52 79.22-4.16 80.85-2.81 83.44-2.81ZM112.57 0.2L112.57 0.2Q109.76 0.2 108.04-0.23 106.32-0.66 105.42-1.61 104.53-2.56 104.22-4.17 103.9-5.79 103.9-8.15L103.9-8.15 103.9-23.71 99.72-23.71 99.85-26.17 104.02-26.39 104.66-33.54 108.34-33.81 108.34-26.42 115.37-26.42 115.37-23.71 108.34-23.71 108.34-8.13Q108.34-6.05 108.57-4.98 108.81-3.91 109.71-3.5 110.61-3.1 112.57-3.03L112.57-3.03Q113.22-3 113.88-2.98 114.54-2.95 115.2-2.93L115.2-2.93 115.01 0.2Q114.4 0.2 113.79 0.2 113.18 0.2 112.57 0.2ZM128.97 0.49L128.97 0.49Q125.19 0.49 122.82-1.42 120.45-3.32 120.45-7.18L120.45-7.18Q120.45-8.94 121.07-10.3 121.69-11.67 122.96-12.61 124.23-13.55 126.24-14.04 128.24-14.53 130.97-14.53L130.97-14.53 136.93-14.53 136.93-17.58Q136.93-20.78 135.49-22.2 134.05-23.63 131.14-23.63L131.14-23.63Q129.26-23.63 126.91-23.03 124.55-22.44 122.67-21.14L122.67-21.14 121.38-24.51Q122.72-25.37 124.34-25.92 125.97-26.46 127.74-26.73 129.51-27 131.26-27L131.26-27Q134.24-27 136.51-26.05 138.78-25.1 140.07-22.95 141.35-20.8 141.35-17.21L141.35-17.21 141.35 0 137.64 0 137.32-3.25Q136.27-2 135.02-1.17 133.78-0.34 132.28 0.07 130.78 0.49 128.97 0.49ZM129.65-2.66L129.65-2.66Q132-2.66 133.85-3.64 135.71-4.61 136.93-6.18L136.93-6.18 136.93-11.72 131.78-11.72Q129.09-11.72 127.53-11.21 125.97-10.69 125.32-9.68 124.67-8.67 124.67-7.13L124.67-7.13Q124.67-4.64 126.13-3.65 127.58-2.66 129.65-2.66ZM160.68 0.49L160.68 0.49Q158.09 0.49 156.15-0.45 154.21-1.39 153.01-2.81L153.01-2.81 152.75 0 149.13 0 149.13-37.6 153.58-38.09 153.58-27.08 153.41-21.53Q154.31-23.73 155.61-24.91 156.92-26.1 158.46-26.55 160-27 161.51-27L161.51-27Q165.1-27 167.41-25.23 169.71-23.46 170.82-20.36 171.94-17.26 171.94-13.26L171.94-13.26Q171.94-9.13 170.62-6.04 169.3-2.95 166.8-1.23 164.29 0.49 160.68 0.49ZM160.41-2.81L160.41-2.81Q162.85-2.81 164.39-4.08 165.93-5.35 166.66-7.69 167.39-10.03 167.39-13.23L167.39-13.23Q167.39-16.28 166.8-18.64 166.2-21 164.78-22.34 163.37-23.68 160.88-23.68L160.88-23.68Q158.26-23.68 156.6-22.44 154.94-21.19 154.17-18.95 153.41-16.7 153.41-13.65L153.41-13.65 153.41-6.1Q154.21-5 155.29-4.27 156.36-3.54 157.67-3.17 158.97-2.81 160.41-2.81ZM186.36 0.2L186.36 0.2Q184.02 0.2 182.42-0.4 180.82-1 180-2.67 179.18-4.35 179.18-7.57L179.18-7.57 179.18-37.6 183.6-38.09 183.6-7.62Q183.6-5.64 183.85-4.74 184.09-3.83 184.84-3.54 185.58-3.25 187.05-3.13L187.05-3.13Q187.44-3.1 187.8-3.08 188.17-3.05 188.56-3.03L188.56-3.03 188.22 0.2Q187.75 0.2 187.29 0.2 186.83 0.2 186.36 0.2ZM206.06 0.49L206.06 0.49Q202.5 0.49 199.63-1.15 196.76-2.78 195.09-5.85 193.42-8.91 193.42-13.13L193.42-13.13Q193.42-17.53 195.05-20.63 196.69-23.73 199.45-25.37 202.2-27 205.52-27L205.52-27Q208.77-27 211.07-25.56 213.36-24.12 214.59-21.46 215.83-18.8 215.83-15.14L215.83-15.14Q215.83-14.77 215.77-14.14 215.71-13.5 215.66-12.99 215.61-12.48 215.61-12.43L215.61-12.43 197.96-12.43Q198.15-9.06 199.31-6.93 200.47-4.81 202.36-3.81 204.25-2.81 206.62-2.81L206.62-2.81Q208.89-2.81 210.5-3.45 212.12-4.1 213.75-5.03L213.75-5.03 214.07-5.03 215.09-2.12Q213.46-1 211.15-0.26 208.84 0.49 206.06 0.49ZM198.03-15.31L198.03-15.31 212.02-15.31Q211.97-19.29 210.44-21.5 208.92-23.71 205.74-23.71L205.74-23.71Q202.55-23.71 200.46-21.45 198.37-19.19 198.03-15.31ZM230.72 0.49L230.72 0.49Q227.54 0.49 224.82-0.57 222.1-1.64 220.46-3.69L220.46-3.69 222.78-5.93 223.12-5.93Q224.71-4.1 226.79-3.42 228.86-2.73 230.72-2.73L230.72-2.73Q233.26-2.73 234.65-3.91 236.04-5.08 236.04-7.5L236.04-7.5Q236.04-8.35 235.72-9.05 235.4-9.74 234.43-10.36 233.45-10.99 231.43-11.62L231.43-11.62 228.45-12.55Q225.25-13.55 223.71-14.65 222.17-15.75 221.7-17.04 221.22-18.33 221.22-19.9L221.22-19.9Q221.22-23.19 223.8-25.1 226.37-27 230.79-27L230.79-27Q232.94-27 234.62-26.5 236.31-26 237.55-25.13 238.8-24.27 239.58-23.14L239.58-23.14 237.16-21.17 236.92-21.17Q236.02-22.24 234.48-22.95 232.94-23.66 230.81-23.66L230.81-23.66Q228.96-23.66 227.81-23.21 226.66-22.75 226.13-21.9 225.59-21.04 225.59-19.87L225.59-19.87Q225.59-18.53 226.38-17.72 227.18-16.92 229.89-16.06L229.89-16.06 232.82-15.14Q235.99-14.11 237.54-12.94 239.09-11.77 239.59-10.46 240.09-9.16 240.09-7.67L240.09-7.67Q240.09-4.79 238.82-2.99 237.55-1.2 235.43-0.35 233.31 0.49 230.72 0.49Z" opacity="1" transform="matrix(1,0,0,1,0,0)" fill="black" class="wordmark-text-0" id="SvgjsPath4644"></path></svg></g></svg></g></svg></g></svg></g><g transform="matrix(1,0,0,1,414.82353671035435,0)"><svg viewBox="0 0 84.79249929808773 84.75285840272757" height="84.75285840272757" width="84.79249929808773"><g><svg xmlns="http://www.w3.org/2000/svg" xmlns:xlink="http://www.w3.org/1999/xlink" version="1.1" x="0" y="0" viewBox="0.7607695154586737 0.7749999999999999 30.439230484541326 30.425" enable-background="new 0 0 32 32" xml:space="preserve" height="84.75285840272757" width="84.79249929808773" class="icon-icon-0" data-fill-palette-color="accent" id="SvgjsSvg4643"><g fill="black"><g fill="black"><path fill="black" d="M1.5 31.2C1.3 31.2 1.1 31.1 1 31 0.8 30.8 0.7 30.6 0.8 30.3L4.5 11.2C4.6 10.9 4.8 10.6 5.1 10.6L14.7 9.3C14.9 9.3 15.2 9.3 15.3 9.5L22.5 16.7C22.7 16.9 22.7 17.1 22.7 17.3L21.4 26.9C21.4 27.2 21.1 27.5 20.8 27.5L1.6 31.2zM5.8 12.1L2.4 29.6 19.9 26.2 21.1 17.5 14.4 10.8z"></path></g><g fill="black"><rect x="5.2" y="19.8" transform="matrix(-0.7071 -0.7071 0.7071 -0.7071 -8.3465 48.7211)" fill="black" width="1.5" height="12.6"></rect></g><g fill="black"><path fill="black" d="M12 23.1C11.2 23.1 10.4 22.8 9.8 22.2S8.9 20.9 8.9 20C8.9 19.2 9.2 18.4 9.8 17.8 11 16.6 13 16.6 14.1 17.8 15.3 19 15.3 20.9 14.1 22.1 13.6 22.8 12.8 23.1 12 23.1M12 18.4C11.6 18.4 11.2 18.6 10.9 18.9S10.4 19.6 10.4 20 10.6 20.8 10.9 21.1C11.5 21.7 12.5 21.7 13.1 21.1S13.7 19.5 13.1 18.9C12.8 18.6 12.4 18.4 12 18.4"></path></g><g fill="black"><path fill="black" d="M23.8 18.7C22.9 18.7 22 18.3 21.4 17.7L14.3 10.6C13 9.3 13 7.1 14.3 5.8L19.1 1C19.4 0.7 19.9 0.7 20.2 1L31 11.8C31.1 11.9 31.2 12.1 31.2 12.3S31.1 12.7 31 12.8L26.1 17.7C25.5 18.4 24.7 18.7 23.8 18.7M19.7 2.6L15.4 6.9C14.7 7.6 14.7 8.9 15.4 9.6L22.5 16.7C23.2 17.4 24.5 17.4 25.2 16.7L29.5 12.4z"></path></g></g></svg></g></svg></g></svg></g><defs><mask></mask></defs></svg><rect width="395.52" height="67.09442479720644" fill="black" stroke="none" visibility="hidden"></rect></g></mask></svg><rect width="395.52" height="67.09442479720644" fill="black" stroke="none" visibility="hidden"></rect></g></mask><linearGradient x1="0" x2="1" y1="0.578" y2="0.595" id="5edc1994-4b03-4e73-b94d-4d9f2ef569b6"><stop stop-color="#6ee2f5" offset="0"></stop><stop stop-color="#6454f0" offset="1"></stop></linearGradient><rect width="395.52" height="67.09442479720644" fill="#000000" mask="url(#47f33d7d-bb30-4cfb-9b3a-39b3bc98ca3b)" data-fill-palette-color="accent"></rect></svg><rect width="395.52" height="67.09442479720644" fill="none" stroke="none" visibility="hidden"></rect></g></svg></g></svg>